<svg xmlns="http://www.w3.org/2000/svg" width="80" height="80" viewBox="0 0 80 80" fill="none">
  <path d="M40 80C62.0914 80 80 62.0914 80 40C80 17.9086 62.0914 0 40 0C17.9086 0 0 17.9086 0 40C0 62.0914 17.9086 80 40 80Z" fill="#2569ED"/>
  <path fill-rule="evenodd" clip-rule="evenodd" d="M27.5096 59.5082L12.8803 43.8506C10.8775 41.7069 10.9925 38.3154 13.1361 36.3126C15.2797 34.3098 18.6712 34.425 20.674 36.5684L31.9585 48.6458L49.8202 31.957C49.9808 31.8068 50.1487 31.6691 50.3222 31.5425L58.7219 23.6947C60.8655 21.6918 64.2574 21.8071 66.2599 23.9507C68.2627 26.094 68.1474 29.4858 66.0041 31.4887L40.3493 55.4588L40.3219 55.4295L31.4476 63.7211L27.5096 59.5082Z" fill="white"/>
</svg>