<svg xmlns="http://www.w3.org/2000/svg" width="16" height="16" viewBox="0 0 16 16" fill="none">
  <path d="M7.99998 14.6663C4.31798 14.6663 1.33331 11.6817 1.33331 7.99967C1.33331 4.31767 4.31798 1.33301 7.99998 1.33301C11.682 1.33301 14.6666 4.31767 14.6666 7.99967C14.6666 11.6817 11.682 14.6663 7.99998 14.6663ZM7.99998 13.333C9.41447 13.333 10.771 12.7711 11.7712 11.7709C12.7714 10.7707 13.3333 9.41416 13.3333 7.99967C13.3333 6.58519 12.7714 5.22863 11.7712 4.22844C10.771 3.22824 9.41447 2.66634 7.99998 2.66634C6.58549 2.66634 5.22894 3.22824 4.22874 4.22844C3.22855 5.22863 2.66665 6.58519 2.66665 7.99967C2.66665 9.41416 3.22855 10.7707 4.22874 11.7709C5.22894 12.7711 6.58549 13.333 7.99998 13.333ZM8.66665 7.99967H11.3333V9.33301H7.33331V4.66634H8.66665V7.99967Z" fill="#2569ED"/>
</svg>