<svg xmlns="http://www.w3.org/2000/svg" width="24" height="24" viewBox="0 0 24 24" fill="none">
<path fill-rule="evenodd" clip-rule="evenodd" d="M15.75 12C12.75 12 10.3333 14.4167 10.3333 17.4167C10.3333 19.3333 11.3333 21 12.8333 22H7.83333C6 22 4.5 20.5 4.5 18.6667V5.33333C4.5 3.5 6 2 7.83333 2H16.1667C18 2 19.5 3.5 19.5 5.33333V13.5C18.5 12.5833 17.1667 12 15.75 12ZM8.66667 10.3333H12C12.5 10.3333 12.8333 10 12.8333 9.5C12.8333 9 12.5 8.66667 12 8.66667H8.66667C8.16667 8.66667 7.83333 9 7.83333 9.5C7.83333 10 8.16667 10.3333 8.66667 10.3333ZM8.66667 7H15.3333C15.8333 7 16.1667 6.66667 16.1667 6.16667C16.1667 5.66667 15.8333 5.33333 15.3333 5.33333H8.66667C8.16667 5.33333 7.83333 5.66667 7.83333 6.16667C7.83333 6.66667 8.16667 7 8.66667 7Z" fill="#CFD2D3"/>
<path fill-rule="evenodd" clip-rule="evenodd" d="M15.75 13.6665C13.6667 13.6665 12 15.3332 12 17.4165C12 19.4998 13.6667 21.1665 15.75 21.1665C17.8333 21.1665 19.5 19.4998 19.5 17.4165C19.5 15.3332 17.8333 13.6665 15.75 13.6665ZM17.7016 16.0682C17.9402 16.3176 17.9314 16.7133 17.682 16.9518L15.7653 18.7852C15.5268 19.0133 15.1519 19.0167 14.9093 18.7928L13.826 17.7928C13.5724 17.5586 13.5566 17.1632 13.7908 16.9096C14.0248 16.6559 14.4203 16.6401 14.6739 16.8743L15.3257 17.4759L16.8179 16.0485C17.0674 15.8099 17.463 15.8187 17.7016 16.0682Z" fill="#CFD2D3"/>
</svg>