<svg xmlns="http://www.w3.org/2000/svg" width="24" height="24" viewBox="0 0 24 24" fill="none">
  <path d="M20.2636 20.158C20.1875 19.7752 19.8111 19.3769 19.4227 19.2557C19.1868 19.1826 14.596 18.8784 11.9982 18.8819C9.40027 18.8784 4.8095 19.1826 4.5736 19.2557C4.18688 19.3777 3.80876 19.776 3.73271 20.158C3.67411 20.4766 3.65549 20.8012 3.67728 21.1244C3.69592 21.4476 3.75363 21.7673 3.84915 22.0766C3.97075 22.4474 4.3781 22.7976 4.76138 22.8801C4.99899 22.9299 9.51671 22.9995 11.9982 22.9995C14.4796 22.9995 18.9973 22.9299 19.2332 22.8801C19.6165 22.7976 20.0238 22.4474 20.1454 22.0766C20.241 21.7673 20.2987 21.4476 20.3173 21.1244C20.3397 20.8013 20.3216 20.4767 20.2636 20.158Z" fill="#2569ED"/>
  <path d="M12.9136 3.42085V1.91394C12.9136 1.40919 12.5044 1 11.9996 1C11.4949 1 11.0857 1.40919 11.0857 1.91394V3.42085C11.0857 3.92561 11.4949 4.33479 11.9996 4.33479C12.5044 4.33479 12.9136 3.92561 12.9136 3.42085Z" fill="#2569ED"/>
  <path d="M6.45227 5.3385L5.38688 4.27311C5.03002 3.91625 4.45143 3.91625 4.09457 4.27311C3.7377 4.62997 3.7377 5.20856 4.09457 5.56543L5.15995 6.63081C5.51681 6.98767 6.0954 6.98767 6.45227 6.63081C6.80913 6.27395 6.80913 5.69536 6.45227 5.3385Z" fill="#2569ED"/>
  <path d="M18.8397 6.63146L19.9051 5.56608C20.262 5.20922 20.262 4.63063 19.9051 4.27376C19.5482 3.9169 18.9697 3.9169 18.6128 4.27376L17.5474 5.33915C17.1905 5.69601 17.1905 6.2746 17.5474 6.63146C17.9043 6.98833 18.4829 6.98833 18.8397 6.63146Z" fill="#2569ED"/>
  <path d="M20.5796 13.0938H22.0865C22.5913 13.0938 23.0005 12.6846 23.0005 12.1798C23.0005 11.675 22.5913 11.2659 22.0865 11.2659H20.5796C20.0749 11.2659 19.6657 11.675 19.6657 12.1798C19.6657 12.6846 20.0749 13.0938 20.5796 13.0938Z" fill="#2569ED"/>
  <path d="M1.91167 13.0928H3.41858C3.92333 13.0928 4.33252 12.6836 4.33252 12.1788C4.33252 11.6741 3.92333 11.2649 3.41858 11.2649H1.91167C1.40691 11.2649 0.997724 11.6741 0.997724 12.1788C0.997724 12.6836 1.40691 13.0928 1.91167 13.0928Z" fill="#2569ED"/>
  <path d="M18.4536 11.9365C18.3999 8.49214 15.3959 5.70605 11.9988 5.70605C8.60173 5.70605 5.5965 8.49429 5.54408 11.9387C5.52718 13.9419 5.56327 15.9448 5.65236 17.9474C6.13662 17.9122 6.7124 17.8752 7.30751 17.8417C9.12079 17.739 10.8146 17.6801 11.9546 17.6801H12.0405C13.1805 17.6801 14.8764 17.739 16.688 17.8417C17.2831 17.8756 17.8589 17.9122 18.3431 17.9474C18.4331 15.9439 18.4699 13.9403 18.4536 11.9365ZM11.9988 15.6206C11.8081 15.6206 11.6217 15.5641 11.4631 15.4581C11.3046 15.3522 11.181 15.2016 11.108 15.0254C11.035 14.8492 11.0159 14.6554 11.0531 14.4683C11.0903 14.2813 11.1822 14.1095 11.317 13.9746C11.4519 13.8398 11.6237 13.7479 11.8107 13.7107C11.9978 13.6735 12.1916 13.6926 12.3678 13.7656C12.544 13.8386 12.6946 13.9622 12.8005 14.1207C12.9065 14.2793 12.963 14.4657 12.963 14.6564C12.963 14.9121 12.8615 15.1574 12.6806 15.3382C12.4998 15.519 12.2546 15.6206 11.9988 15.6206ZM13.012 8.88444C12.9669 10.3149 12.9218 10.818 12.8771 12.2506C12.8671 12.4768 12.7702 12.6904 12.6066 12.847C12.443 13.0035 12.2253 13.0909 11.9988 13.0909C11.7724 13.0909 11.5547 13.0035 11.3911 12.847C11.2275 12.6904 11.1306 12.4768 11.1206 12.2506C11.0776 10.8198 11.0307 10.317 10.9856 8.88444C10.9684 8.4148 11.4218 8.01691 11.9988 8.01691C12.5759 8.01691 13.0301 8.4148 13.012 8.88444Z" fill="#2569ED"/>
</svg>