<svg xmlns="http://www.w3.org/2000/svg" width="24" height="24" viewBox="0 0 24 24" fill="none">
<path d="M20.2636 20.158C20.1875 19.7752 19.8111 19.3769 19.4227 19.2557C19.1868 19.1826 14.596 18.8784 11.9982 18.8819C9.40027 18.8784 4.8095 19.1826 4.5736 19.2557C4.18688 19.3777 3.80876 19.776 3.73271 20.158C3.67411 20.4766 3.65549 20.8012 3.67728 21.1244C3.69592 21.4476 3.75363 21.7673 3.84915 22.0766C3.97075 22.4474 4.3781 22.7976 4.76138 22.8801C4.99899 22.9299 9.51671 22.9995 11.9982 22.9995C14.4796 22.9995 18.9973 22.9299 19.2332 22.8801C19.6165 22.7976 20.0238 22.4474 20.1454 22.0766C20.241 21.7673 20.2987 21.4476 20.3173 21.1244C20.3397 20.8013 20.3216 20.4767 20.2636 20.158Z" fill="#CFD2D3"/>
<path d="M12.9131 3.42085V1.91394C12.9131 1.40919 12.5039 1 11.9991 1C11.4944 1 11.0852 1.40919 11.0852 1.91394V3.42085C11.0852 3.92561 11.4944 4.33479 11.9991 4.33479C12.5039 4.33479 12.9131 3.92561 12.9131 3.42085Z" fill="#CFD2D3"/>
<path d="M6.45227 5.3385L5.38688 4.27311C5.03002 3.91625 4.45143 3.91625 4.09457 4.27311C3.7377 4.62997 3.7377 5.20856 4.09457 5.56543L5.15995 6.63081C5.51681 6.98767 6.0954 6.98767 6.45227 6.63081C6.80913 6.27395 6.80913 5.69536 6.45227 5.3385Z" fill="#CFD2D3"/>
<path d="M18.8392 6.63146L19.9046 5.56608C20.2615 5.20922 20.2615 4.63063 19.9046 4.27376C19.5478 3.9169 18.9692 3.9169 18.6123 4.27376L17.5469 5.33915C17.1901 5.69601 17.1901 6.2746 17.5469 6.63146C17.9038 6.98833 18.4824 6.98833 18.8392 6.63146Z" fill="#CFD2D3"/>
<path d="M20.5791 13.0938H22.0861C22.5908 13.0938 23 12.6846 23 12.1798C23 11.675 22.5908 11.2659 22.0861 11.2659H20.5791C20.0744 11.2659 19.6652 11.675 19.6652 12.1798C19.6652 12.6846 20.0744 13.0938 20.5791 13.0938Z" fill="#CFD2D3"/>
<path d="M1.91167 13.0928H3.41858C3.92333 13.0928 4.33252 12.6836 4.33252 12.1788C4.33252 11.6741 3.92333 11.2649 3.41858 11.2649H1.91167C1.40691 11.2649 0.997724 11.6741 0.997724 12.1788C0.997724 12.6836 1.40691 13.0928 1.91167 13.0928Z" fill="#CFD2D3"/>
<path d="M18.4531 11.9365C18.3994 8.49214 15.3954 5.70605 11.9983 5.70605C8.60124 5.70605 5.59602 8.49429 5.54359 11.9387C5.52669 13.9419 5.56279 15.9448 5.65187 17.9474C6.13613 17.9122 6.71191 17.8752 7.30703 17.8417C9.1203 17.739 10.8141 17.6801 11.9541 17.6801H12.04C13.18 17.6801 14.876 17.739 16.6875 17.8417C17.2826 17.8756 17.8584 17.9122 18.3427 17.9474C18.4326 15.9439 18.4694 13.9403 18.4531 11.9365ZM11.9983 15.6206C11.8076 15.6206 11.6212 15.5641 11.4627 15.4581C11.3041 15.3522 11.1805 15.2016 11.1075 15.0254C11.0345 14.8492 11.0154 14.6554 11.0527 14.4683C11.0899 14.2813 11.1817 14.1095 11.3165 13.9746C11.4514 13.8398 11.6232 13.7479 11.8102 13.7107C11.9973 13.6735 12.1911 13.6926 12.3673 13.7656C12.5435 13.8386 12.6941 13.9622 12.8001 14.1207C12.906 14.2793 12.9626 14.4657 12.9626 14.6564C12.9626 14.9121 12.861 15.1574 12.6801 15.3382C12.4993 15.519 12.2541 15.6206 11.9983 15.6206ZM13.0115 8.88444C12.9664 10.3149 12.9213 10.818 12.8766 12.2506C12.8666 12.4768 12.7697 12.6904 12.6061 12.847C12.4425 13.0035 12.2248 13.0909 11.9983 13.0909C11.7719 13.0909 11.5542 13.0035 11.3906 12.847C11.227 12.6904 11.1301 12.4768 11.1201 12.2506C11.0771 10.8198 11.0303 10.317 10.9851 8.88444C10.968 8.4148 11.4213 8.01691 11.9983 8.01691C12.5754 8.01691 13.0296 8.4148 13.0115 8.88444Z" fill="#CFD2D3"/>
</svg>
