<svg xmlns="http://www.w3.org/2000/svg" width="24" height="24" viewBox="0 0 24 24" fill="none">
<path fill-rule="evenodd" clip-rule="evenodd" d="M4.03537 4.87947C7.33118 1.58364 12.3406 1.05114 16.1914 3.27684C16.7264 3.58608 16.9093 4.27047 16.6002 4.80548C16.2909 5.34048 15.6065 5.5235 15.0716 5.21427C12.0759 3.48282 8.17915 3.90037 5.61771 6.46181C2.55904 9.52048 2.55904 14.4796 5.61771 17.5383C8.17915 20.0996 12.0759 20.5172 15.0716 18.7857C15.6065 18.4766 16.2909 18.6595 16.6002 19.1946C16.9093 19.7296 16.7264 20.4139 16.1914 20.7232C12.3406 22.9489 7.33118 22.4164 4.03537 19.1206C0.102794 15.188 0.102794 8.81203 4.03537 4.87947ZM18.197 7.85218C18.6339 7.41522 19.3424 7.41522 19.7793 7.85218L21.8953 9.96821C22.0951 10.1679 22.2895 10.3623 22.4408 10.5404C22.6068 10.7361 22.7854 10.9844 22.8907 11.3085C23.0367 11.758 23.0367 12.2421 22.8907 12.6915C22.7854 13.0157 22.6068 13.264 22.4408 13.4596C22.2895 13.6377 22.0951 13.8322 21.8953 14.0318L19.7793 16.1478C19.3424 16.5847 18.6339 16.5847 18.197 16.1478C17.76 15.7109 17.76 15.0024 18.197 14.5655L19.6436 13.1189H11.1559C10.538 13.1189 10.037 12.618 10.037 12C10.037 11.382 10.538 10.8811 11.1559 10.8811H19.6436L18.197 9.43452C17.76 8.99758 17.76 8.28913 18.197 7.85218Z" fill="#000614"/>
</svg>
