<svg xmlns="http://www.w3.org/2000/svg" width="20" height="20" viewBox="0 0 20 20" fill="none">
<path d="M5.83331 5.9436V5.9436C5.83331 4.11902 5.83331 3.20672 6.34535 2.63661C6.45647 2.51289 6.58258 2.40351 6.72078 2.31101C7.35757 1.88474 8.26069 2.01376 10.0669 2.2718L12.3485 2.59773C14.8046 2.94861 16.0327 3.12405 16.7663 3.96994C17.5 4.81583 17.5 6.05636 17.5 8.53743V11.4632C17.5 13.9443 17.5 15.1848 16.7663 16.0307C16.0327 16.8766 14.8046 17.052 12.3485 17.4029L9.90368 17.7522C8.2521 17.9881 7.42631 18.1061 6.82458 17.7546C6.61005 17.6293 6.42074 17.4651 6.26634 17.2705C5.83331 16.7245 5.83331 15.8903 5.83331 14.222V14.222" stroke="#FF5F5F" stroke-width="2"/>
<path d="M13.3333 9.99967L14.1142 9.37498L14.6139 9.99967L14.1142 10.6244L13.3333 9.99967ZM3.33331 10.9997C2.78103 10.9997 2.33331 10.552 2.33331 9.99967C2.33331 9.44739 2.78103 8.99967 3.33331 8.99967V10.9997ZM9.99998 5.83301L10.7808 5.20831L14.1142 9.37498L13.3333 9.99967L12.5524 10.6244L9.21911 6.4577L9.99998 5.83301ZM13.3333 9.99967L14.1142 10.6244L10.7808 14.791L9.99998 14.1663L9.21911 13.5416L12.5524 9.37498L13.3333 9.99967ZM13.3333 9.99967V10.9997H3.33331V9.99967V8.99967H13.3333V9.99967Z" fill="#FF5F5F"/>
</svg>
