<svg xmlns="http://www.w3.org/2000/svg" width="25" height="24" viewBox="0 0 25 24" fill="none">
  <path d="M4.6803 17.3456C3.97833 18.7882 5.14867 20.9363 6.90652 21.3797C10.6121 22.2063 14.3883 22.2063 18.0939 21.3797C19.8517 20.9355 21.022 18.7882 20.3201 17.3456C19.0087 14.6194 15.9919 12.2252 12.5004 12.2021C9.00852 12.2252 5.99166 14.6198 4.68069 17.3456H4.6803Z" fill="#2569ED"/>
  <path d="M12.4999 10.9588C14.9738 10.9588 16.9793 8.95328 16.9793 6.47939C16.9793 4.00549 14.9738 2 12.4999 2C10.026 2 8.02051 4.00549 8.02051 6.47939C8.02051 8.95328 10.026 10.9588 12.4999 10.9588Z" fill="#2569ED"/>
</svg>