<svg width="24" height="24" viewBox="0 0 24 24" fill="none" xmlns="http://www.w3.org/2000/svg">
<g clip-path="url(#clip0_2_1703)">
<path d="M1.09092 8.72727C0.436377 8.72727 0 8.29089 0 7.63635V3.27271C0 1.41817 1.41817 0 3.27271 0H7.63635C8.29089 0 8.72727 0.436377 8.72727 1.09092C8.72727 1.74546 8.29089 2.18184 7.63635 2.18184H3.27271C2.61817 2.18184 2.18179 2.61822 2.18179 3.27276V7.63639C2.18184 8.29089 1.74546 8.72727 1.09092 8.72727Z" fill="#000614"/>
<path d="M22.9091 8.72727C22.2546 8.72727 21.8182 8.29089 21.8182 7.63635V3.27271C21.8182 2.61817 21.3818 2.18179 20.7273 2.18179H16.3636C15.7091 2.18179 15.2727 1.74542 15.2727 1.09087C15.2727 0.436332 15.7091 0 16.3636 0H20.7273C22.5818 0 24 1.41817 24 3.27271V7.63635C24 8.29089 23.5636 8.72727 22.9091 8.72727Z" fill="#000614"/>
<path d="M7.63635 24.0002H3.27271C1.41817 24.0002 0 22.582 0 20.7275V16.3639C0 15.7093 0.436377 15.2729 1.09092 15.2729C1.74546 15.2729 2.18184 15.7093 2.18184 16.3639V20.7275C2.18184 21.382 2.61821 21.8184 3.27276 21.8184H7.63639C8.29093 21.8184 8.72731 22.2548 8.72731 22.9093C8.72726 23.5638 8.29089 24.0002 7.63635 24.0002Z" fill="#000614"/>
<path d="M20.7273 23.9998H16.3636C15.7091 23.9998 15.2727 23.5634 15.2727 22.9088C15.2727 22.2543 15.7091 21.8179 16.3636 21.8179H20.7273C21.3818 21.8179 21.8182 21.3816 21.8182 20.727V16.3634C21.8182 15.7088 22.2546 15.2725 22.9091 15.2725C23.5636 15.2725 24 15.7088 24 16.3634V20.727C24 22.5816 22.5818 23.9998 20.7273 23.9998Z" fill="#000614"/>
<path d="M9.8182 10.9092H5.45457C4.80002 10.9092 4.36365 10.4729 4.36365 9.81832V5.45469C4.36365 4.80015 4.80002 4.36377 5.45457 4.36377H9.8182C10.4727 4.36377 10.9091 4.80015 10.9091 5.45469V9.81832C10.9091 10.4729 10.4727 10.9092 9.8182 10.9092ZM6.54549 8.7274H8.72732V6.54556H6.54549V8.7274Z" fill="#000614"/>
<path d="M9.8182 19.6363H5.45457C4.80002 19.6363 4.36365 19.1999 4.36365 18.5454V14.1817C4.36365 13.5272 4.80002 13.0908 5.45457 13.0908H9.8182C10.4727 13.0908 10.9091 13.5272 10.9091 14.1817V18.5454C10.9091 19.1999 10.4727 19.6363 9.8182 19.6363ZM6.54549 17.4545H8.72732V15.2726H6.54549V17.4545Z" fill="#000614"/>
<path d="M18.5454 10.9092H14.1817C13.5272 10.9092 13.0908 10.4729 13.0908 9.81832V5.45469C13.0908 4.80015 13.5272 4.36377 14.1817 4.36377H18.5454C19.1999 4.36377 19.6363 4.80015 19.6363 5.45469V9.81832C19.6363 10.4729 19.1999 10.9092 18.5454 10.9092ZM15.2727 8.7274H17.4545V6.54556H15.2727V8.7274Z" fill="#000614"/>
<path d="M14.1817 16.3636C13.5272 16.3636 13.0908 15.9272 13.0908 15.2727V14.1817C13.0908 13.5272 13.5272 13.0908 14.1817 13.0908C14.8363 13.0908 15.2727 13.5272 15.2727 14.1817V15.2727C15.2727 15.9272 14.8363 16.3636 14.1817 16.3636Z" fill="#000614"/>
<path d="M18.5454 15.2727H17.4544C16.7999 15.2727 16.3635 14.8363 16.3635 14.1817C16.3635 13.5272 16.7999 13.0908 17.4544 13.0908H18.5454C19.1999 13.0908 19.6363 13.5272 19.6363 14.1817C19.6363 14.8363 19.1999 15.2727 18.5454 15.2727Z" fill="#000614"/>
<path d="M18.5455 19.6364H15.2728C14.6183 19.6364 14.1819 19.2001 14.1819 18.5455C14.1819 17.891 14.6183 17.4546 15.2728 17.4546H18.5455C19.2001 17.4546 19.6364 17.891 19.6364 18.5455C19.6364 19.2001 19.2001 19.6364 18.5455 19.6364Z" fill="#000614"/>
</g>
<defs>
<clipPath id="clip0_2_1703">
<rect width="24" height="24" fill="white"/>
</clipPath>
</defs>
</svg>
