<svg width="24" height="24" viewBox="0 0 24 24" fill="none" xmlns="http://www.w3.org/2000/svg">
<g clip-path="url(#clip0_2_1694)">
<path d="M21.0169 20.9C20.9339 20.4824 20.5233 20.0478 20.0995 19.9157C19.8422 19.836 14.8341 19.5041 12 19.5078C9.16593 19.5041 4.1578 19.836 3.90046 19.9157C3.47858 20.0488 3.06608 20.4833 2.98312 20.9C2.91919 21.2476 2.89888 21.6017 2.92265 21.9542C2.94298 22.3068 3.00594 22.6556 3.11015 22.993C3.2428 23.3975 3.68718 23.7796 4.1053 23.8696C4.36452 23.9239 9.29296 23.9999 12 23.9999C14.707 23.9999 19.6355 23.9239 19.8928 23.8696C20.3109 23.7796 20.7553 23.3975 20.888 22.993C20.9922 22.6556 21.0551 22.3068 21.0755 21.9542C21.0998 21.6018 21.0802 21.2476 21.0169 20.9Z" fill="#000614"/>
<path d="M12.9975 2.64094V0.997031C12.9975 0.446386 12.5511 0 12.0005 0C11.4498 0 11.0034 0.446386 11.0034 0.997031V2.64094C11.0034 3.19158 11.4498 3.63797 12.0005 3.63797C12.5511 3.63797 12.9975 3.19158 12.9975 2.64094Z" fill="#000614"/>
<path d="M5.94991 4.73287L4.78766 3.57062C4.39836 3.18132 3.76717 3.18132 3.37786 3.57062C2.98856 3.95993 2.98856 4.59112 3.37786 4.98043L4.5401 6.14267C4.92941 6.53197 5.5606 6.53197 5.94991 6.14267C6.33921 5.75336 6.33921 5.12217 5.94991 4.73287Z" fill="#000614"/>
<path d="M19.4631 6.14302L20.6254 4.98078C21.0147 4.59147 21.0147 3.96028 20.6254 3.57098C20.2361 3.18167 19.6049 3.18167 19.2156 3.57098L18.0533 4.73322C17.664 5.12253 17.664 5.75372 18.0533 6.14302C18.4426 6.53233 19.0738 6.53233 19.4631 6.14302Z" fill="#000614"/>
<path d="M21.3586 13.1924H23.0025C23.5531 13.1924 23.9995 12.746 23.9995 12.1954C23.9995 11.6447 23.5531 11.1983 23.0025 11.1983H21.3586C20.8079 11.1983 20.3615 11.6447 20.3615 12.1954C20.3615 12.746 20.8079 13.1924 21.3586 13.1924Z" fill="#000614"/>
<path d="M0.996514 13.1919H2.64042C3.19107 13.1919 3.63745 12.7455 3.63745 12.1949C3.63745 11.6442 3.19107 11.1978 2.64042 11.1978H0.996514C0.445868 11.1978 -0.000517607 11.6442 -0.000517607 12.1949C-0.000517607 12.7455 0.445868 13.1919 0.996514 13.1919Z" fill="#000614"/>
<path d="M19.0415 11.9312C18.9829 8.17365 15.7059 5.13428 12 5.13428C8.29401 5.13428 5.01558 8.176 4.95839 11.9335C4.93995 14.1188 4.97933 16.3038 5.07651 18.4885C5.6048 18.4501 6.23292 18.4097 6.88214 18.3732C8.86027 18.2612 10.7081 18.1969 11.9517 18.1969H12.0454C13.289 18.1969 15.1392 18.2612 17.1154 18.3732C17.7646 18.4102 18.3928 18.4501 18.921 18.4885C19.0192 16.3029 19.0593 14.1171 19.0415 11.9312ZM12 15.9502C11.7919 15.9502 11.5885 15.8885 11.4156 15.7729C11.2426 15.6574 11.1078 15.4931 11.0281 15.3009C10.9485 15.1087 10.9277 14.8972 10.9683 14.6931C11.0089 14.4891 11.1091 14.3017 11.2562 14.1546C11.4033 14.0074 11.5907 13.9073 11.7947 13.8667C11.9988 13.8261 12.2103 13.8469 12.4025 13.9265C12.5947 14.0061 12.759 14.141 12.8746 14.3139C12.9901 14.4869 13.0518 14.6903 13.0518 14.8983C13.0518 15.1773 12.941 15.4449 12.7437 15.6421C12.5465 15.8394 12.2789 15.9502 12 15.9502ZM13.1053 8.60162C13.056 10.1621 13.0068 10.711 12.9581 12.2738C12.9472 12.5206 12.8414 12.7536 12.663 12.9244C12.4845 13.0952 12.247 13.1905 12 13.1905C11.7529 13.1905 11.5154 13.0952 11.337 12.9244C11.1585 12.7536 11.0527 12.5206 11.0418 12.2738C10.995 10.7129 10.9439 10.1644 10.8946 8.60162C10.8759 8.08928 11.3704 7.65521 12 7.65521C12.6295 7.65521 13.125 8.08928 13.1053 8.60162Z" fill="#000614"/>
</g>
<defs>
<clipPath id="clip0_2_1694">
<rect width="24" height="24" fill="white"/>
</clipPath>
</defs>
</svg>
