<svg xmlns="http://www.w3.org/2000/svg" width="25" height="24" viewBox="0 0 25 24" fill="none">
  <path d="M9.47675 13.6279H11.8023V16.8837H9.47675V13.6279Z" fill="#CFD2D3"/>
  <path d="M13.1977 10.8369V13.3951V16.8834H15.5233V10.8369H13.1977Z" fill="#CFD2D3"/>
  <path d="M15.4996 2V6C15.4996 7.10443 16.3952 7.99977 17.4996 8H21.5699V18.5117C21.5673 20.4371 20.007 21.9973 18.0816 22H6.91852C4.99308 21.9974 3.43286 20.4372 3.43024 18.5117V5.48828C3.43286 3.56284 4.99308 2.00262 6.91852 2H15.4996ZM12.9654 9.44141C12.3237 9.44243 11.8034 9.96281 11.8023 10.6045V12.2324H9.24371C8.60218 12.2337 8.08263 12.7539 8.0816 13.3955V16.8838H7.38336C6.99834 16.884 6.68628 17.196 6.6861 17.5811C6.6861 17.9662 6.99822 18.2791 7.38336 18.2793H17.6168C18.0018 18.279 18.314 17.9662 18.314 17.5811C18.3138 17.1961 18.0017 16.884 17.6168 16.8838H16.9185V10.6045C16.9174 9.96281 16.3971 9.44243 15.7554 9.44141H12.9654ZM6.91852 8.04688C6.53327 8.04692 6.22128 8.35889 6.22125 8.74414C6.22125 9.12942 6.53325 9.44136 6.91852 9.44141H9.70953C10.0947 9.44128 10.4068 9.12937 10.4068 8.74414C10.4068 8.35893 10.0947 8.047 9.70953 8.04688H6.91852ZM6.91852 5.25586C6.53337 5.25591 6.22145 5.56802 6.22125 5.95312C6.22125 6.3384 6.53325 6.65132 6.91852 6.65137H12.4996C12.8849 6.65137 13.1978 6.33843 13.1978 5.95312C13.1976 5.56799 12.8848 5.25586 12.4996 5.25586H6.91852Z" fill="#CFD2D3"/>
  <path d="M16.5 5.67568C16.5009 6.24174 16.9596 6.70042 17.5256 6.70132H20.8512C20.6997 6.48019 20.5198 6.27994 20.3162 6.10564L16.9628 3.3159C16.8186 3.19655 16.6637 3.09082 16.5 3V5.67568Z" fill="#CFD2D3"/>
</svg>