<svg xmlns="http://www.w3.org/2000/svg" width="16" height="16" viewBox="0 0 16 16" fill="none">
<g clip-path="url(#clip0_48_3086)">
<path d="M15.0209 14.1626L11.4509 10.4496C12.3688 9.35844 12.8718 7.98552 12.8718 6.55624C12.8718 3.21688 10.1549 0.5 6.81552 0.5C3.47616 0.5 0.759277 3.21688 0.759277 6.55624C0.759277 9.8956 3.47616 12.6125 6.81552 12.6125C8.06916 12.6125 9.26382 12.2344 10.2852 11.5166L13.8824 15.2578C14.0327 15.4139 14.2349 15.5 14.4517 15.5C14.6568 15.5 14.8514 15.4218 14.9991 15.2796C15.313 14.9776 15.323 14.4768 15.0209 14.1626ZM6.81552 2.07989C9.28384 2.07989 11.2919 4.08793 11.2919 6.55624C11.2919 9.02456 9.28384 11.0326 6.81552 11.0326C4.34721 11.0326 2.33917 9.02456 2.33917 6.55624C2.33917 4.08793 4.34721 2.07989 6.81552 2.07989Z" fill="black"/>
</g>
<defs>
<clipPath id="clip0_48_3086">
<rect width="15" height="15" fill="white" transform="translate(0.5 0.5)"/>
</clipPath>
</defs>
</svg>
