<svg xmlns="http://www.w3.org/2000/svg" width="25" height="24" viewBox="0 0 25 24" fill="none">
  <path d="M17.0813 15.2186C16.2738 15.1636 15.8506 15.5573 15.6882 16.2984C15.3858 17.6795 15.0751 19.059 14.803 20.4462C14.6721 21.1141 15.0478 21.6054 15.7362 21.7864C16.3517 21.9484 16.9011 21.6747 17.084 21.025C17.3093 20.2248 17.5159 19.4112 17.6253 18.5894C17.7058 17.9851 17.9788 17.8551 18.5216 17.8832C19.201 17.9183 19.8874 17.9175 20.5651 17.8628C21.5138 17.7862 21.9142 17.3287 21.9256 16.3892C21.9397 15.2308 21.9104 11.2968 21.9051 11.009C21.8882 10.0777 21.4489 9.65827 20.5501 9.67017C19.6872 9.68161 19.3143 10.0785 19.304 11.0169C19.291 12.204 19.2744 13.3913 19.2867 14.5785C19.2913 15.029 19.1307 15.2231 18.6717 15.2094C18.142 15.1935 17.6087 15.2544 17.0813 15.2186Z" fill="#2569ED"/>
  <path d="M7.21544 13.1643C7.25507 13.6605 7.01425 14.2974 7.8795 14.2876C10.9429 14.2534 14.007 14.2473 17.0703 14.2833C17.9501 14.2936 17.7665 13.6818 17.8059 13.1273C17.8477 12.5371 17.7351 12.2191 17.0881 12.239C16.3308 12.2622 8.88715 12.2625 7.89739 12.235C7.21456 12.2161 7.17229 12.624 7.21544 13.1643Z" fill="#2569ED"/>
  <path d="M12.5999 6.29853C13.6919 6.28601 14.5597 5.38224 14.5635 4.25339C14.5678 2.95747 13.7918 2.16477 12.5222 2.16798C11.2868 2.17118 10.4336 2.99165 10.4444 4.16581C10.456 5.42084 11.3574 6.31272 12.5999 6.29853Z" fill="#2569ED"/>
  <path d="M20.5576 8.83943C21.634 8.84645 22.496 8.00401 22.5 6.94109C22.5039 5.88289 21.7148 5.08043 20.6444 5.05434C19.558 5.02764 18.7067 5.85192 18.6978 6.93895C18.6893 7.9767 19.527 8.83272 20.5576 8.83943Z" fill="#2569ED"/>
  <path d="M3.07435 16.3892C3.08576 17.3287 3.48615 17.7862 4.43479 17.8628C5.11258 17.9175 5.79892 17.9183 6.47835 17.8832C7.02107 17.8551 7.29413 17.9851 7.37462 18.5894C7.48406 19.4112 7.6907 20.2248 7.91596 21.025C8.09887 21.6747 8.64826 21.9484 9.2638 21.7864C9.95213 21.6054 10.3279 21.1141 10.1969 20.4462C9.92485 19.059 9.61418 17.6795 9.31172 16.2984C9.1494 15.5573 8.72616 15.1636 7.9187 15.2186C7.39125 15.2544 6.85795 15.1935 6.32828 15.2094C5.86922 15.2231 5.70863 15.029 5.71328 14.5785C5.72556 13.3913 5.70893 12.204 5.69596 11.0169C5.68566 10.0785 5.31277 9.68161 4.44989 9.67017C3.55104 9.65827 3.11177 10.0777 3.09484 11.009C3.0896 11.2968 3.06025 15.2308 3.07435 16.3892Z" fill="#2569ED"/>
  <path d="M4.44246 8.83943C5.47299 8.83272 6.31066 7.9767 6.30219 6.93895C6.29334 5.85192 5.44198 5.02764 4.35563 5.05434C3.28519 5.08043 2.49609 5.88289 2.50001 6.94109C2.50398 8.00401 3.36599 8.84645 4.44246 8.83943Z" fill="#2569ED"/>
  <path d="M9.40051 7.27924V10.7797C9.40051 11.1362 9.68951 11.4252 10.046 11.4252H14.9931C15.3496 11.4252 15.6386 11.1362 15.6386 10.7797V7.27924C15.6386 6.92279 15.3496 6.63379 14.9931 6.63379H14.4406C14.2699 6.63379 14.1136 6.70947 13.9862 6.82315C13.1243 7.59107 11.8116 7.48175 11.0411 6.81491C10.9154 6.70627 10.7634 6.63379 10.5972 6.63379H10.046C9.68951 6.63379 9.40051 6.92279 9.40051 7.27924Z" fill="#2569ED"/>
</svg>