<svg xmlns="http://www.w3.org/2000/svg" width="16" height="16" viewBox="0 0 16 16" fill="none">
  <path d="M4.66658 7.33301C4.27262 7.33301 3.88251 7.25541 3.51853 7.10465C3.15456 6.95388 2.82384 6.7329 2.54526 6.45433C2.26669 6.17575 2.04571 5.84504 1.89495 5.48106C1.74418 5.11708 1.66659 4.72697 1.66659 4.33301C1.66659 3.93904 1.74418 3.54893 1.89495 3.18496C2.04571 2.82098 2.26669 2.49026 2.54526 2.21169C2.82384 1.93311 3.15456 1.71213 3.51853 1.56137C3.88251 1.41061 4.27262 1.33301 4.66658 1.33301C5.46223 1.33301 6.2253 1.64908 6.78791 2.21169C7.35051 2.7743 7.66658 3.53736 7.66658 4.33301C7.66658 5.12866 7.35051 5.89172 6.78791 6.45433C6.2253 7.01694 5.46223 7.33301 4.66658 7.33301ZM11.6666 9.99967C10.9593 9.99967 10.2811 9.71872 9.78097 9.21863C9.28087 8.71853 8.99992 8.04025 8.99992 7.33301C8.99992 6.62576 9.28087 5.94749 9.78097 5.44739C10.2811 4.94729 10.9593 4.66634 11.6666 4.66634C12.3738 4.66634 13.0521 4.94729 13.5522 5.44739C14.0523 5.94749 14.3333 6.62576 14.3333 7.33301C14.3333 8.04025 14.0523 8.71853 13.5522 9.21863C13.0521 9.71872 12.3738 9.99967 11.6666 9.99967ZM11.6666 10.6663C12.4622 10.6663 13.2253 10.9824 13.7879 11.545C14.3505 12.1076 14.6666 12.8707 14.6666 13.6663V13.9997H8.66658V13.6663C8.66658 12.8707 8.98266 12.1076 9.54526 11.545C10.1079 10.9824 10.8709 10.6663 11.6666 10.6663ZM4.66658 7.99967C5.10432 7.99967 5.53778 8.08589 5.9422 8.25341C6.34661 8.42093 6.71408 8.66646 7.02361 8.97599C7.33314 9.28551 7.57867 9.65298 7.74618 10.0574C7.9137 10.4618 7.99992 10.8953 7.99992 11.333V13.9997H1.33325V11.333C1.33325 10.449 1.68444 9.60111 2.30956 8.97599C2.93468 8.35086 3.78253 7.99967 4.66658 7.99967Z" fill="#2569ED"/>
</svg>