<svg xmlns="http://www.w3.org/2000/svg" width="16" height="16" viewBox="0 0 16 16" fill="none">
<path d="M13.3332 14.667H11.9998V13.3337C11.9998 12.8032 11.7891 12.2945 11.4141 11.9194C11.039 11.5444 10.5303 11.3337 9.99984 11.3337H5.99984C5.4694 11.3337 4.9607 11.5444 4.58562 11.9194C4.21055 12.2945 3.99984 12.8032 3.99984 13.3337V14.667H2.6665V13.3337C2.6665 12.4496 3.01769 11.6018 3.64281 10.9766C4.26794 10.3515 5.11578 10.0003 5.99984 10.0003H9.99984C10.8839 10.0003 11.7317 10.3515 12.3569 10.9766C12.982 11.6018 13.3332 12.4496 13.3332 13.3337V14.667ZM7.99984 8.66699C7.47455 8.66699 6.95441 8.56353 6.4691 8.36251C5.9838 8.16149 5.54284 7.86685 5.17141 7.49542C4.79998 7.12398 4.50534 6.68303 4.30432 6.19773C4.1033 5.71242 3.99984 5.19228 3.99984 4.66699C3.99984 4.1417 4.1033 3.62156 4.30432 3.13626C4.50534 2.65096 4.79998 2.21 5.17141 1.83857C5.54284 1.46713 5.9838 1.17249 6.4691 0.971474C6.95441 0.770455 7.47455 0.666992 7.99984 0.666992C9.0607 0.666992 10.0781 1.08842 10.8283 1.83857C11.5784 2.58871 11.9998 3.60613 11.9998 4.66699C11.9998 5.72786 11.5784 6.74527 10.8283 7.49542C10.0781 8.24556 9.0607 8.66699 7.99984 8.66699ZM7.99984 7.33366C8.70708 7.33366 9.38536 7.05271 9.88546 6.55261C10.3856 6.05251 10.6665 5.37424 10.6665 4.66699C10.6665 3.95975 10.3856 3.28147 9.88546 2.78137C9.38536 2.28128 8.70708 2.00033 7.99984 2.00033C7.29259 2.00033 6.61432 2.28128 6.11422 2.78137C5.61412 3.28147 5.33317 3.95975 5.33317 4.66699C5.33317 5.37424 5.61412 6.05251 6.11422 6.55261C6.61432 7.05271 7.29259 7.33366 7.99984 7.33366Z" fill="#2569ED"/>
</svg>
