<svg width="20" height="20" viewBox="0 0 20 20" fill="none" xmlns="http://www.w3.org/2000/svg">
<g clip-path="url(#clip0_2_1727)">
<path d="M10.7216 2.49964L18.66 16.2496C18.7331 16.3763 18.7716 16.52 18.7716 16.6663C18.7716 16.8126 18.7331 16.9563 18.66 17.083C18.5868 17.2096 18.4817 17.3148 18.355 17.388C18.2283 17.4611 18.0846 17.4996 17.9383 17.4996H2.06164C1.91537 17.4996 1.77167 17.4611 1.64499 17.388C1.51831 17.3148 1.41311 17.2096 1.33997 17.083C1.26683 16.9563 1.22833 16.8126 1.22833 16.6663C1.22833 16.52 1.26684 16.3763 1.33998 16.2496L9.27831 2.49964C9.35145 2.37296 9.45665 2.26778 9.58333 2.19464C9.71001 2.12151 9.8537 2.08301 9.99998 2.08301C10.1463 2.08301 10.2899 2.12151 10.4166 2.19464C10.5433 2.26778 10.6485 2.37296 10.7216 2.49964ZM3.50498 15.833H16.495L9.99998 4.58297L3.50498 15.833ZM9.16664 13.333H10.8333V14.9996H9.16664V13.333ZM9.16664 7.49964H10.8333V11.6663H9.16664V7.49964Z" fill="#8A8A8A"/>
</g>
<defs>
<clipPath id="clip0_2_1727">
<rect width="20" height="20" fill="white"/>
</clipPath>
</defs>
</svg>
